<mxfile host="app.diagrams.net" modified="2021-06-17T06:05:02.805Z" agent="5.0 (Windows NT 10.0; Win64; x64) AppleWebKit/537.36 (KHTML, like Gecko) Chrome/91.0.4472.101 Safari/537.36 Edg/91.0.864.48" etag="qHetY4UngNIiYpwGDmg4" version="14.7.10" type="github">
  <diagram id="fByeOvIanHJRO3AO7uKY" name="Page-1">
    <mxGraphModel dx="1278" dy="547" grid="1" gridSize="10" guides="1" tooltips="1" connect="1" arrows="1" fold="1" page="1" pageScale="1" pageWidth="827" pageHeight="1169" math="0" shadow="0">
      <root>
        <mxCell id="0" />
        <mxCell id="1" parent="0" />
        <mxCell id="DosYOpkFpXLYxPAaPumv-4" style="edgeStyle=orthogonalEdgeStyle;rounded=0;orthogonalLoop=1;jettySize=auto;html=1;entryX=0.5;entryY=0;entryDx=0;entryDy=0;" parent="1" source="DosYOpkFpXLYxPAaPumv-3" target="DosYOpkFpXLYxPAaPumv-10" edge="1">
          <mxGeometry relative="1" as="geometry">
            <mxPoint x="360" y="260" as="targetPoint" />
          </mxGeometry>
        </mxCell>
        <mxCell id="DosYOpkFpXLYxPAaPumv-3" value="删除原有标注" style="rounded=1;whiteSpace=wrap;html=1;" parent="1" vertex="1">
          <mxGeometry x="300" y="110" width="120" height="60" as="geometry" />
        </mxCell>
        <mxCell id="DosYOpkFpXLYxPAaPumv-12" value="" style="edgeStyle=orthogonalEdgeStyle;rounded=0;orthogonalLoop=1;jettySize=auto;html=1;" parent="1" source="DosYOpkFpXLYxPAaPumv-7" target="DosYOpkFpXLYxPAaPumv-8" edge="1">
          <mxGeometry relative="1" as="geometry" />
        </mxCell>
        <mxCell id="DosYOpkFpXLYxPAaPumv-7" value="查找当前视图所在标高的房间" style="rounded=0;whiteSpace=wrap;html=1;" parent="1" vertex="1">
          <mxGeometry x="300" y="320" width="120" height="60" as="geometry" />
        </mxCell>
        <mxCell id="DosYOpkFpXLYxPAaPumv-17" value="" style="edgeStyle=orthogonalEdgeStyle;rounded=0;orthogonalLoop=1;jettySize=auto;html=1;" parent="1" source="DosYOpkFpXLYxPAaPumv-8" target="DosYOpkFpXLYxPAaPumv-13" edge="1">
          <mxGeometry relative="1" as="geometry" />
        </mxCell>
        <mxCell id="DosYOpkFpXLYxPAaPumv-8" value="获取房间里的家具，并进族文档去到前后左右四个参照转化到项目中后参照的直线" style="rounded=0;whiteSpace=wrap;html=1;" parent="1" vertex="1">
          <mxGeometry x="300" y="430" width="120" height="60" as="geometry" />
        </mxCell>
        <mxCell id="DosYOpkFpXLYxPAaPumv-9" value="基于房间进行家具的标注，但是家具找的就近墙柱是基于当前视图的所有墙柱，基于房间进行家具标注只是为了家具找成组家具的数据源能相对少" style="text;html=1;strokeColor=#33FF33;fillColor=#99FF99;align=center;verticalAlign=middle;whiteSpace=wrap;rounded=0;" parent="1" vertex="1">
          <mxGeometry x="10" y="310" width="160" height="140" as="geometry" />
        </mxCell>
        <mxCell id="DosYOpkFpXLYxPAaPumv-11" value="" style="edgeStyle=orthogonalEdgeStyle;rounded=0;orthogonalLoop=1;jettySize=auto;html=1;" parent="1" source="DosYOpkFpXLYxPAaPumv-10" target="DosYOpkFpXLYxPAaPumv-7" edge="1">
          <mxGeometry relative="1" as="geometry" />
        </mxCell>
        <mxCell id="DosYOpkFpXLYxPAaPumv-10" value="&lt;span style=&quot;color: rgb(0 , 0 , 0) ; font-family: &amp;#34;helvetica&amp;#34; ; font-size: 12px ; font-style: normal ; font-weight: 400 ; letter-spacing: normal ; text-align: center ; text-indent: 0px ; text-transform: none ; word-spacing: 0px ; background-color: rgb(248 , 249 , 250) ; display: inline ; float: none&quot;&gt;查找所有Category为家具且族名称里不带&quot;椅&quot;的实例，再额外增加类别是“环境”且族名称带有“商圈图灯箱”的实例&lt;/span&gt;" style="rounded=0;whiteSpace=wrap;html=1;strokeColor=#000000;fillColor=#FFFFFF;" parent="1" vertex="1">
          <mxGeometry x="282.5" y="210" width="155" height="80" as="geometry" />
        </mxCell>
        <mxCell id="DosYOpkFpXLYxPAaPumv-18" style="edgeStyle=orthogonalEdgeStyle;rounded=0;orthogonalLoop=1;jettySize=auto;html=1;exitX=0.5;exitY=1;exitDx=0;exitDy=0;entryX=0.573;entryY=0.003;entryDx=0;entryDy=0;entryPerimeter=0;" parent="1" source="DosYOpkFpXLYxPAaPumv-13" target="DosYOpkFpXLYxPAaPumv-15" edge="1">
          <mxGeometry relative="1" as="geometry" />
        </mxCell>
        <mxCell id="KoUpKzur_F4DTWEkh_oL-8" style="edgeStyle=orthogonalEdgeStyle;rounded=0;orthogonalLoop=1;jettySize=auto;html=1;" parent="1" source="DosYOpkFpXLYxPAaPumv-13" target="KoUpKzur_F4DTWEkh_oL-6" edge="1">
          <mxGeometry relative="1" as="geometry" />
        </mxCell>
        <mxCell id="DosYOpkFpXLYxPAaPumv-13" value="家具是否是Group的&lt;br&gt;一部分且组名称带&lt;br&gt;&quot;沙发&quot;字眼" style="rhombus;whiteSpace=wrap;html=1;strokeColor=#000000;fillColor=#FFFFFF;" parent="1" vertex="1">
          <mxGeometry x="270.94" y="540" width="178.12" height="110" as="geometry" />
        </mxCell>
        <mxCell id="DosYOpkFpXLYxPAaPumv-25" value="" style="edgeStyle=orthogonalEdgeStyle;rounded=0;orthogonalLoop=1;jettySize=auto;html=1;" parent="1" source="DosYOpkFpXLYxPAaPumv-15" target="DosYOpkFpXLYxPAaPumv-24" edge="1">
          <mxGeometry relative="1" as="geometry" />
        </mxCell>
        <mxCell id="DosYOpkFpXLYxPAaPumv-15" value="取得该组中组名称带&quot;沙发&quot;但不带&quot;靠垫&quot;字眼的实例" style="rounded=0;whiteSpace=wrap;html=1;strokeColor=#000000;fillColor=#FFFFFF;" parent="1" vertex="1">
          <mxGeometry x="50" y="690" width="120" height="60" as="geometry" />
        </mxCell>
        <mxCell id="DosYOpkFpXLYxPAaPumv-19" value="是" style="text;html=1;strokeColor=none;fillColor=none;align=center;verticalAlign=middle;whiteSpace=wrap;rounded=0;" parent="1" vertex="1">
          <mxGeometry x="190" y="630" width="40" height="20" as="geometry" />
        </mxCell>
        <mxCell id="DosYOpkFpXLYxPAaPumv-28" value="" style="edgeStyle=orthogonalEdgeStyle;rounded=0;orthogonalLoop=1;jettySize=auto;html=1;" parent="1" source="DosYOpkFpXLYxPAaPumv-20" target="DosYOpkFpXLYxPAaPumv-27" edge="1">
          <mxGeometry relative="1" as="geometry" />
        </mxCell>
        <mxCell id="DosYOpkFpXLYxPAaPumv-35" value="" style="edgeStyle=orthogonalEdgeStyle;rounded=0;orthogonalLoop=1;jettySize=auto;html=1;" parent="1" source="DosYOpkFpXLYxPAaPumv-20" target="DosYOpkFpXLYxPAaPumv-34" edge="1">
          <mxGeometry relative="1" as="geometry" />
        </mxCell>
        <mxCell id="DosYOpkFpXLYxPAaPumv-20" value="组名称是否带&quot;L型&quot;" style="rhombus;whiteSpace=wrap;html=1;rounded=0;fillColor=#FFFFFF;" parent="1" vertex="1">
          <mxGeometry x="50" y="930" width="120" height="80" as="geometry" />
        </mxCell>
        <mxCell id="DosYOpkFpXLYxPAaPumv-26" value="" style="edgeStyle=orthogonalEdgeStyle;rounded=0;orthogonalLoop=1;jettySize=auto;html=1;" parent="1" source="DosYOpkFpXLYxPAaPumv-24" target="DosYOpkFpXLYxPAaPumv-20" edge="1">
          <mxGeometry relative="1" as="geometry" />
        </mxCell>
        <mxCell id="DosYOpkFpXLYxPAaPumv-24" value="确定标注的起始基准实例" style="rounded=0;whiteSpace=wrap;html=1;strokeColor=#000000;fillColor=#FFFFFF;" parent="1" vertex="1">
          <mxGeometry x="50" y="820" width="120" height="60" as="geometry" />
        </mxCell>
        <mxCell id="DosYOpkFpXLYxPAaPumv-33" value="" style="edgeStyle=orthogonalEdgeStyle;rounded=0;orthogonalLoop=1;jettySize=auto;html=1;" parent="1" source="DosYOpkFpXLYxPAaPumv-27" target="DosYOpkFpXLYxPAaPumv-32" edge="1">
          <mxGeometry relative="1" as="geometry" />
        </mxCell>
        <mxCell id="DosYOpkFpXLYxPAaPumv-27" value="对需要标记的实例按照定位点的X轴从小到大排序，第一个即为标注起始基准实例" style="whiteSpace=wrap;html=1;rounded=0;fillColor=#FFFFFF;" parent="1" vertex="1">
          <mxGeometry x="250" y="1010" width="120" height="60" as="geometry" />
        </mxCell>
        <mxCell id="DosYOpkFpXLYxPAaPumv-29" value="否" style="text;html=1;strokeColor=none;fillColor=none;align=center;verticalAlign=middle;whiteSpace=wrap;rounded=0;" parent="1" vertex="1">
          <mxGeometry x="190" y="950" width="40" height="20" as="geometry" />
        </mxCell>
        <mxCell id="DosYOpkFpXLYxPAaPumv-38" value="" style="edgeStyle=orthogonalEdgeStyle;rounded=0;orthogonalLoop=1;jettySize=auto;html=1;" parent="1" source="DosYOpkFpXLYxPAaPumv-32" target="DosYOpkFpXLYxPAaPumv-37" edge="1">
          <mxGeometry relative="1" as="geometry" />
        </mxCell>
        <mxCell id="DosYOpkFpXLYxPAaPumv-32" value="由第一实例确定标注的起始定位&lt;br&gt;点和纵横方向" style="whiteSpace=wrap;html=1;rounded=0;fillColor=#FFFFFF;" parent="1" vertex="1">
          <mxGeometry x="250" y="1170" width="120" height="60" as="geometry" />
        </mxCell>
        <mxCell id="DosYOpkFpXLYxPAaPumv-39" style="edgeStyle=orthogonalEdgeStyle;rounded=0;orthogonalLoop=1;jettySize=auto;html=1;entryX=0.5;entryY=0;entryDx=0;entryDy=0;" parent="1" source="DosYOpkFpXLYxPAaPumv-34" target="DosYOpkFpXLYxPAaPumv-37" edge="1">
          <mxGeometry relative="1" as="geometry" />
        </mxCell>
        <mxCell id="DosYOpkFpXLYxPAaPumv-34" value="获取所有带&quot;坐垫&quot;的实例的定位点，取相邻两个坐垫的定位点，做一条直线，作为标注方向之一。其余定位点投影到该直线上，取任一投影距离大于0的那点，形成另一条直线作为另一个标注方向。两条直线的交点作为标注的起始定位点" style="whiteSpace=wrap;html=1;rounded=0;fillColor=#FFFFFF;" parent="1" vertex="1">
          <mxGeometry x="35" y="1100" width="150" height="140" as="geometry" />
        </mxCell>
        <mxCell id="DosYOpkFpXLYxPAaPumv-36" value="是" style="text;html=1;strokeColor=none;fillColor=none;align=center;verticalAlign=middle;whiteSpace=wrap;rounded=0;" parent="1" vertex="1">
          <mxGeometry x="70" y="1030" width="40" height="20" as="geometry" />
        </mxCell>
        <mxCell id="DosYOpkFpXLYxPAaPumv-41" value="" style="edgeStyle=orthogonalEdgeStyle;rounded=0;orthogonalLoop=1;jettySize=auto;html=1;" parent="1" source="DosYOpkFpXLYxPAaPumv-37" target="DosYOpkFpXLYxPAaPumv-40" edge="1">
          <mxGeometry relative="1" as="geometry" />
        </mxCell>
        <mxCell id="DosYOpkFpXLYxPAaPumv-37" value="根据组的BoundingBox将标注的纵横方向延伸出去0.8英尺" style="whiteSpace=wrap;html=1;rounded=0;fillColor=#FFFFFF;" parent="1" vertex="1">
          <mxGeometry x="140" y="1320" width="120" height="60" as="geometry" />
        </mxCell>
        <mxCell id="DosYOpkFpXLYxPAaPumv-43" value="" style="edgeStyle=orthogonalEdgeStyle;rounded=0;orthogonalLoop=1;jettySize=auto;html=1;" parent="1" source="DosYOpkFpXLYxPAaPumv-40" target="DosYOpkFpXLYxPAaPumv-42" edge="1">
          <mxGeometry relative="1" as="geometry" />
        </mxCell>
        <mxCell id="DosYOpkFpXLYxPAaPumv-40" value="取得组中所有与尺寸标注线方向平行的面参照，夹在中间的靠背不作为尺寸标注的参照" style="whiteSpace=wrap;html=1;rounded=0;fillColor=#FFFFFF;" parent="1" vertex="1">
          <mxGeometry x="140" y="1460" width="120" height="110" as="geometry" />
        </mxCell>
        <mxCell id="DosYOpkFpXLYxPAaPumv-45" style="edgeStyle=orthogonalEdgeStyle;rounded=0;orthogonalLoop=1;jettySize=auto;html=1;" parent="1" source="DosYOpkFpXLYxPAaPumv-42" target="DosYOpkFpXLYxPAaPumv-44" edge="1">
          <mxGeometry relative="1" as="geometry" />
        </mxCell>
        <mxCell id="DosYOpkFpXLYxPAaPumv-42" value="取得就近墙的参照" style="whiteSpace=wrap;html=1;rounded=0;fillColor=#FFFFFF;" parent="1" vertex="1">
          <mxGeometry x="140" y="1675" width="120" height="60" as="geometry" />
        </mxCell>
        <mxCell id="DosYOpkFpXLYxPAaPumv-44" value="完成标注" style="rounded=1;whiteSpace=wrap;html=1;strokeColor=#000000;fillColor=#FFFFFF;" parent="1" vertex="1">
          <mxGeometry x="700" y="1810" width="120" height="60" as="geometry" />
        </mxCell>
        <mxCell id="KoUpKzur_F4DTWEkh_oL-3" value="否" style="text;html=1;strokeColor=none;fillColor=none;align=center;verticalAlign=middle;whiteSpace=wrap;rounded=0;" parent="1" vertex="1">
          <mxGeometry x="470" y="565" width="40" height="20" as="geometry" />
        </mxCell>
        <mxCell id="KoUpKzur_F4DTWEkh_oL-10" value="" style="edgeStyle=orthogonalEdgeStyle;rounded=0;orthogonalLoop=1;jettySize=auto;html=1;" parent="1" source="KoUpKzur_F4DTWEkh_oL-6" target="KoUpKzur_F4DTWEkh_oL-9" edge="1">
          <mxGeometry relative="1" as="geometry" />
        </mxCell>
        <mxCell id="KoUpKzur_F4DTWEkh_oL-17" style="edgeStyle=orthogonalEdgeStyle;rounded=0;orthogonalLoop=1;jettySize=auto;html=1;" parent="1" source="KoUpKzur_F4DTWEkh_oL-6" target="KoUpKzur_F4DTWEkh_oL-15" edge="1">
          <mxGeometry relative="1" as="geometry" />
        </mxCell>
        <mxCell id="KoUpKzur_F4DTWEkh_oL-6" value="是否找到成组的家具" style="rhombus;whiteSpace=wrap;html=1;strokeColor=#000000;fillColor=#FFFFFF;" parent="1" vertex="1">
          <mxGeometry x="570" y="532.5" width="180" height="125" as="geometry" />
        </mxCell>
        <mxCell id="KoUpKzur_F4DTWEkh_oL-46" style="edgeStyle=orthogonalEdgeStyle;rounded=0;orthogonalLoop=1;jettySize=auto;html=1;entryX=0;entryY=0.5;entryDx=0;entryDy=0;" parent="1" source="KoUpKzur_F4DTWEkh_oL-9" target="KoUpKzur_F4DTWEkh_oL-28" edge="1">
          <mxGeometry relative="1" as="geometry" />
        </mxCell>
        <mxCell id="KoUpKzur_F4DTWEkh_oL-48" value="" style="edgeStyle=orthogonalEdgeStyle;rounded=0;orthogonalLoop=1;jettySize=auto;html=1;" parent="1" source="KoUpKzur_F4DTWEkh_oL-9" target="KoUpKzur_F4DTWEkh_oL-47" edge="1">
          <mxGeometry relative="1" as="geometry" />
        </mxCell>
        <mxCell id="KoUpKzur_F4DTWEkh_oL-9" value="把成组的所有实例按照单个实例标注一样的方式得到需要标注的参照，统一标注到一条线上" style="whiteSpace=wrap;html=1;fillColor=#FFFFFF;" parent="1" vertex="1">
          <mxGeometry x="580" y="760" width="160" height="100" as="geometry" />
        </mxCell>
        <mxCell id="KoUpKzur_F4DTWEkh_oL-11" value="是" style="text;html=1;strokeColor=none;fillColor=none;align=center;verticalAlign=middle;whiteSpace=wrap;rounded=0;" parent="1" vertex="1">
          <mxGeometry x="620" y="700" width="40" height="20" as="geometry" />
        </mxCell>
        <mxCell id="KoUpKzur_F4DTWEkh_oL-13" value="否" style="text;html=1;strokeColor=none;fillColor=none;align=center;verticalAlign=middle;whiteSpace=wrap;rounded=0;" parent="1" vertex="1">
          <mxGeometry x="787" y="565" width="40" height="20" as="geometry" />
        </mxCell>
        <mxCell id="KoUpKzur_F4DTWEkh_oL-19" value="" style="edgeStyle=orthogonalEdgeStyle;rounded=0;orthogonalLoop=1;jettySize=auto;html=1;" parent="1" source="KoUpKzur_F4DTWEkh_oL-15" target="KoUpKzur_F4DTWEkh_oL-18" edge="1">
          <mxGeometry relative="1" as="geometry" />
        </mxCell>
        <mxCell id="KoUpKzur_F4DTWEkh_oL-29" value="" style="edgeStyle=orthogonalEdgeStyle;rounded=0;orthogonalLoop=1;jettySize=auto;html=1;" parent="1" source="KoUpKzur_F4DTWEkh_oL-15" target="KoUpKzur_F4DTWEkh_oL-28" edge="1">
          <mxGeometry relative="1" as="geometry" />
        </mxCell>
        <mxCell id="KoUpKzur_F4DTWEkh_oL-15" value="&lt;br&gt;根据名称中是否带&#39;Φ&#39;符&lt;br&gt;号，判断实例是否是&lt;br&gt;圆形实例" style="rhombus;whiteSpace=wrap;html=1;sketch=0;strokeColor=#000000;fillColor=#ffffff;" parent="1" vertex="1">
          <mxGeometry x="890" y="690" width="170" height="110" as="geometry" />
        </mxCell>
        <mxCell id="KoUpKzur_F4DTWEkh_oL-55" style="edgeStyle=orthogonalEdgeStyle;rounded=0;orthogonalLoop=1;jettySize=auto;html=1;exitX=0.5;exitY=1;exitDx=0;exitDy=0;" parent="1" source="KoUpKzur_F4DTWEkh_oL-18" edge="1">
          <mxGeometry relative="1" as="geometry">
            <mxPoint x="760" y="1800" as="targetPoint" />
          </mxGeometry>
        </mxCell>
        <mxCell id="KoUpKzur_F4DTWEkh_oL-18" value="由于API暂不支持半径标注，&lt;span style=&quot;color: rgb(0 , 0 , 0) ; font-family: &amp;#34;helvetica&amp;#34; ; font-size: 12px ; font-style: normal ; font-weight: 400 ; letter-spacing: normal ; text-align: center ; text-indent: 0px ; text-transform: none ; word-spacing: 0px ; background-color: rgb(248 , 249 , 250) ; display: inline ; float: none&quot;&gt;取左参照到强参照作为半径标注，并在标注加&#39;R&#39;前缀；取前两个就近墙到强参照作为圆形实例两侧的尺寸标注&lt;/span&gt;" style="whiteSpace=wrap;html=1;sketch=0;" parent="1" vertex="1">
          <mxGeometry x="897.5" y="1075" width="155" height="95" as="geometry" />
        </mxCell>
        <mxCell id="KoUpKzur_F4DTWEkh_oL-21" value="是" style="text;html=1;strokeColor=none;fillColor=none;align=center;verticalAlign=middle;whiteSpace=wrap;rounded=0;sketch=0;" parent="1" vertex="1">
          <mxGeometry x="970" y="840" width="40" height="20" as="geometry" />
        </mxCell>
        <mxCell id="KoUpKzur_F4DTWEkh_oL-35" value="" style="edgeStyle=orthogonalEdgeStyle;rounded=0;orthogonalLoop=1;jettySize=auto;html=1;" parent="1" source="KoUpKzur_F4DTWEkh_oL-28" target="KoUpKzur_F4DTWEkh_oL-34" edge="1">
          <mxGeometry relative="1" as="geometry" />
        </mxCell>
        <mxCell id="KoUpKzur_F4DTWEkh_oL-39" value="" style="edgeStyle=orthogonalEdgeStyle;rounded=0;orthogonalLoop=1;jettySize=auto;html=1;" parent="1" source="KoUpKzur_F4DTWEkh_oL-28" target="KoUpKzur_F4DTWEkh_oL-38" edge="1">
          <mxGeometry relative="1" as="geometry" />
        </mxCell>
        <mxCell id="KoUpKzur_F4DTWEkh_oL-28" value="族名称是否带有&quot;双&quot;字眼" style="rhombus;whiteSpace=wrap;html=1;sketch=0;strokeColor=#000000;fillColor=#ffffff;" parent="1" vertex="1">
          <mxGeometry x="1190" y="830" width="170" height="110" as="geometry" />
        </mxCell>
        <mxCell id="KoUpKzur_F4DTWEkh_oL-31" value="否" style="text;html=1;strokeColor=none;fillColor=none;align=center;verticalAlign=middle;whiteSpace=wrap;rounded=0;sketch=0;" parent="1" vertex="1">
          <mxGeometry x="1170" y="720" width="40" height="20" as="geometry" />
        </mxCell>
        <mxCell id="KoUpKzur_F4DTWEkh_oL-42" value="" style="edgeStyle=orthogonalEdgeStyle;rounded=0;orthogonalLoop=1;jettySize=auto;html=1;" parent="1" source="KoUpKzur_F4DTWEkh_oL-34" target="KoUpKzur_F4DTWEkh_oL-41" edge="1">
          <mxGeometry relative="1" as="geometry" />
        </mxCell>
        <mxCell id="KoUpKzur_F4DTWEkh_oL-34" value="取&quot;前、后、中心前后&quot;为一组，&lt;br&gt;&quot;左、右、中心左右&quot;为另一组进行标注" style="whiteSpace=wrap;html=1;sketch=0;" parent="1" vertex="1">
          <mxGeometry x="1215" y="1045" width="120" height="60" as="geometry" />
        </mxCell>
        <mxCell id="KoUpKzur_F4DTWEkh_oL-36" value="是" style="text;html=1;strokeColor=none;fillColor=none;align=center;verticalAlign=middle;whiteSpace=wrap;rounded=0;sketch=0;" parent="1" vertex="1">
          <mxGeometry x="1270" y="985" width="40" height="20" as="geometry" />
        </mxCell>
        <mxCell id="KoUpKzur_F4DTWEkh_oL-44" style="edgeStyle=orthogonalEdgeStyle;rounded=0;orthogonalLoop=1;jettySize=auto;html=1;exitX=0.5;exitY=1;exitDx=0;exitDy=0;entryX=0.5;entryY=0;entryDx=0;entryDy=0;" parent="1" source="KoUpKzur_F4DTWEkh_oL-38" target="KoUpKzur_F4DTWEkh_oL-41" edge="1">
          <mxGeometry relative="1" as="geometry" />
        </mxCell>
        <mxCell id="KoUpKzur_F4DTWEkh_oL-38" value="&lt;span&gt;取&quot;前、后&quot;为一组，&lt;/span&gt;&lt;br&gt;&lt;span&gt;&quot;左、右&quot;为另一组进行标注&lt;/span&gt;" style="whiteSpace=wrap;html=1;sketch=0;" parent="1" vertex="1">
          <mxGeometry x="1370" y="1045" width="120" height="60" as="geometry" />
        </mxCell>
        <mxCell id="KoUpKzur_F4DTWEkh_oL-40" value="否" style="text;html=1;strokeColor=none;fillColor=none;align=center;verticalAlign=middle;whiteSpace=wrap;rounded=0;sketch=0;" parent="1" vertex="1">
          <mxGeometry x="1430" y="890" width="40" height="20" as="geometry" />
        </mxCell>
        <mxCell id="KoUpKzur_F4DTWEkh_oL-56" style="edgeStyle=orthogonalEdgeStyle;rounded=0;orthogonalLoop=1;jettySize=auto;html=1;exitX=0.5;exitY=1;exitDx=0;exitDy=0;" parent="1" source="KoUpKzur_F4DTWEkh_oL-41" edge="1">
          <mxGeometry relative="1" as="geometry">
            <mxPoint x="760" y="1810" as="targetPoint" />
          </mxGeometry>
        </mxCell>
        <mxCell id="KoUpKzur_F4DTWEkh_oL-41" value="如果该实例由Group组成，取Group的BoundingBox的四个端点和插入点，否则取实例的BoundingBox的四个端点和插入点。取该五点到就近墙的最短距离追加上面的尺寸标注" style="whiteSpace=wrap;html=1;sketch=0;" parent="1" vertex="1">
          <mxGeometry x="1241" y="1250" width="235" height="85" as="geometry" />
        </mxCell>
        <mxCell id="KoUpKzur_F4DTWEkh_oL-50" value="" style="edgeStyle=orthogonalEdgeStyle;rounded=0;orthogonalLoop=1;jettySize=auto;html=1;" parent="1" source="KoUpKzur_F4DTWEkh_oL-47" target="KoUpKzur_F4DTWEkh_oL-49" edge="1">
          <mxGeometry relative="1" as="geometry" />
        </mxCell>
        <mxCell id="KoUpKzur_F4DTWEkh_oL-51" style="edgeStyle=orthogonalEdgeStyle;rounded=0;orthogonalLoop=1;jettySize=auto;html=1;entryX=0;entryY=0.5;entryDx=0;entryDy=0;" parent="1" source="KoUpKzur_F4DTWEkh_oL-47" target="KoUpKzur_F4DTWEkh_oL-28" edge="1">
          <mxGeometry relative="1" as="geometry" />
        </mxCell>
        <mxCell id="KoUpKzur_F4DTWEkh_oL-47" value="以上只标注了成组测的尺寸标注，之后再对单个实例进行另一侧的尺寸标注&lt;br&gt;" style="whiteSpace=wrap;html=1;fillColor=#FFFFFF;" parent="1" vertex="1">
          <mxGeometry x="580" y="955" width="160" height="80" as="geometry" />
        </mxCell>
        <mxCell id="KoUpKzur_F4DTWEkh_oL-54" style="edgeStyle=orthogonalEdgeStyle;rounded=0;orthogonalLoop=1;jettySize=auto;html=1;exitX=1;exitY=0.5;exitDx=0;exitDy=0;" parent="1" source="KoUpKzur_F4DTWEkh_oL-49" edge="1">
          <mxGeometry relative="1" as="geometry">
            <mxPoint x="760" y="1810" as="targetPoint" />
          </mxGeometry>
        </mxCell>
        <mxCell id="KoUpKzur_F4DTWEkh_oL-49" value="删除标记内容一样的尺寸标注" style="whiteSpace=wrap;html=1;fillColor=#FFFFFF;" parent="1" vertex="1">
          <mxGeometry x="600" y="1125" width="120" height="60" as="geometry" />
        </mxCell>
        <mxCell id="KoUpKzur_F4DTWEkh_oL-57" value="&lt;h1&gt;&lt;font style=&quot;font-size: 18px&quot;&gt;判断是否成组的逻辑：将参照线按照HandOrientation(即所谓的家具族的X轴)进行优先成组判断，若两个家具的某两条参照线共线，且两个插入点之间所成Solid拉伸体与墙柱没有相交，即认为是成组的&lt;/font&gt;&lt;/h1&gt;" style="text;html=1;strokeColor=none;fillColor=#A680B8;spacing=5;spacingTop=-20;whiteSpace=wrap;overflow=hidden;rounded=0;sketch=0;" parent="1" vertex="1">
          <mxGeometry x="637" y="360" width="463" height="130" as="geometry" />
        </mxCell>
        <mxCell id="By6To0_0wS0Z-77CmLri-2" value="哈哈哈哈" style="ellipse;whiteSpace=wrap;html=1;" parent="1" vertex="1">
          <mxGeometry x="680" y="140" width="120" height="80" as="geometry" />
        </mxCell>
        <mxCell id="By6To0_0wS0Z-77CmLri-3" value="Text" style="text;html=1;align=center;verticalAlign=middle;resizable=0;points=[];autosize=1;strokeColor=none;" parent="1" vertex="1">
          <mxGeometry x="480" y="120" width="40" height="20" as="geometry" />
        </mxCell>
        <mxCell id="By6To0_0wS0Z-77CmLri-6" value="" style="edgeStyle=orthogonalEdgeStyle;rounded=0;orthogonalLoop=1;jettySize=auto;html=1;" parent="1" source="By6To0_0wS0Z-77CmLri-4" target="By6To0_0wS0Z-77CmLri-5" edge="1">
          <mxGeometry relative="1" as="geometry" />
        </mxCell>
        <mxCell id="By6To0_0wS0Z-77CmLri-4" value="" style="whiteSpace=wrap;html=1;" parent="1" vertex="1">
          <mxGeometry x="510" y="130" width="120" height="60" as="geometry" />
        </mxCell>
        <mxCell id="By6To0_0wS0Z-77CmLri-7" style="edgeStyle=orthogonalEdgeStyle;rounded=0;orthogonalLoop=1;jettySize=auto;html=1;" parent="1" source="By6To0_0wS0Z-77CmLri-5" target="By6To0_0wS0Z-77CmLri-2" edge="1">
          <mxGeometry relative="1" as="geometry" />
        </mxCell>
        <mxCell id="By6To0_0wS0Z-77CmLri-5" value="" style="shape=step;perimeter=stepPerimeter;whiteSpace=wrap;html=1;fixedSize=1;" parent="1" vertex="1">
          <mxGeometry x="510" y="260" width="120" height="90" as="geometry" />
        </mxCell>
      </root>
    </mxGraphModel>
  </diagram>
</mxfile>
